<?xml version="1.0" standalone="no"?>
<!DOCTYPE svg PUBLIC "-//W3C//DTD SVG 20010904//EN"
 "http://www.w3.org/TR/2001/REC-SVG-20010904/DTD/svg10.dtd">
<svg version="1.0" xmlns="http://www.w3.org/2000/svg"
 width="2146.000000pt" height="1697.000000pt" viewBox="0 0 2146.000000 1697.000000"
 preserveAspectRatio="xMidYMid meet">

<g transform="translate(0.000000,1697.000000) scale(0.100000,-0.100000)"
fill="#ffffff" stroke="none">
<path d="M8150 16920 c-1942 -78 -3763 -806 -5241 -2096 -186 -163 -629 -608
-789 -794 -485 -562 -848 -1102 -1170 -1741 -220 -437 -368 -797 -511 -1249
-492 -1547 -524 -3247 -92 -4800 343 -1237 924 -2314 1782 -3310 155 -179 600
-626 781 -785 1767 -1542 4034 -2279 6355 -2064 2375 219 4534 1429 5977 3349
441 588 810 1247 1082 1932 82 207 152 397 142 388 -2 -3 -52 -81 -110 -173
-271 -432 -561 -793 -931 -1162 -510 -509 -1050 -896 -1705 -1224 -723 -361
-1478 -575 -2310 -656 -227 -22 -729 -31 -965 -16 -732 45 -1407 195 -2071
461 -214 86 -645 296 -839 410 -1320 774 -2315 1956 -2849 3381 -198 530 -321
1074 -383 1689 -22 220 -25 899 -5 1115 53 569 144 1017 308 1520 412 1258
1216 2377 2282 3178 858 645 1836 1061 2892 1231 569 92 1195 106 1775 40 925
-105 1815 -406 2616 -884 l184 -110 -70 65 c-723 674 -1475 1178 -2337 1569
-1169 528 -2506 788 -3798 736z"/>
<path d="M12495 14529 c-136 -55 -396 -182 -530 -259 -60 -35 -216 -131 -345
-215 -129 -83 -269 -170 -310 -192 -43 -24 -174 -74 -310 -118 -637 -209
-1021 -389 -1167 -548 -23 -25 -45 -57 -49 -71 -7 -29 -16 -32 -34 -11 -24 29
-122 56 -230 64 -253 18 -674 -33 -1162 -141 -188 -42 -198 -43 -373 -43 -99
0 -297 6 -439 13 -255 13 -405 11 -636 -9 -140 -12 -307 -36 -337 -49 -30 -12
-47 -101 -41 -211 l5 -86 -45 13 c-108 33 -120 15 -103 -147 40 -376 263
-1323 617 -2614 168 -616 178 -647 208 -677 110 -112 581 -208 1106 -224 269
-9 342 1 476 65 136 65 232 130 319 216 184 182 273 418 263 695 l-4 115 18
-58 c42 -137 53 -218 52 -382 -1 -288 -44 -431 -171 -566 -120 -127 -260 -197
-613 -304 -383 -116 -552 -183 -696 -277 -308 -200 -480 -511 -529 -956 -6
-53 -10 -63 -28 -66 -12 -3 -53 -10 -92 -17 -38 -6 -106 -23 -150 -36 -246
-76 -341 -200 -375 -488 -7 -68 -40 -497 -40 -536 0 -4 -96 -9 -212 -12 -160
-4 -237 -11 -307 -26 -245 -53 -388 -183 -473 -432 -27 -81 -30 -101 -21 -121
20 -45 168 -151 365 -263 445 -252 594 -380 1044 -894 450 -515 1056 -840
1696 -910 229 -25 541 -7 777 45 720 158 1444 698 1755 1308 92 180 174 433
192 587 8 70 5 71 -81 30 -80 -38 -152 -94 -325 -252 -212 -194 -319 -280
-468 -379 -293 -195 -606 -324 -989 -406 -116 -25 -147 -28 -333 -28 -176 0
-220 3 -310 22 -157 34 -299 85 -440 158 -363 187 -655 513 -777 869 -56 164
-80 466 -53 660 39 273 148 541 335 820 185 276 370 471 751 790 151 127 397
372 496 495 193 240 301 450 360 700 17 69 22 135 27 349 l6 264 125 34 c131
35 175 36 203 5 19 -20 127 -413 127 -460 0 -23 -33 -89 -111 -225 -121 -209
-131 -241 -87 -282 31 -30 966 -577 995 -583 60 -11 64 -6 368 515 296 507
314 545 282 585 -7 9 -96 64 -198 123 -101 58 -194 116 -206 128 -15 16 -37
82 -77 233 -31 116 -56 221 -56 232 0 48 38 71 180 108 74 20 136 32 137 28
15 -46 255 -426 307 -486 266 -310 714 -515 1386 -633 456 -80 744 -167 1031
-311 437 -219 734 -516 891 -891 110 -264 132 -539 67 -842 -88 -406 -350
-792 -694 -1022 -273 -184 -718 -315 -1145 -338 -276 -16 -512 9 -895 94 -262
58 -359 70 -447 55 l-68 -12 32 -41 c66 -84 216 -232 315 -311 335 -268 771
-425 1319 -477 155 -14 455 -7 604 16 997 150 1764 835 2055 1838 20 67 60
244 90 392 102 510 190 748 421 1137 111 186 155 277 181 368 l17 63 -75 71
c-278 261 -554 248 -1036 -45 l-62 -38 -64 92 c-35 51 -100 146 -144 212 -197
296 -297 381 -469 400 -78 9 -211 -14 -342 -60 -55 -19 -105 -35 -110 -35 -5
0 -36 35 -68 77 -82 110 -205 235 -301 307 -190 142 -376 210 -613 223 -176 9
-336 -13 -710 -102 -265 -63 -359 -77 -495 -78 -194 -1 -320 45 -445 160 -159
147 -276 352 -335 585 -9 35 -18 72 -21 83 -3 11 18 -23 46 -75 60 -111 114
-185 187 -257 200 -197 493 -283 823 -243 70 9 104 20 195 65 263 128 653 406
869 619 100 97 172 197 182 252 6 35 -20 145 -177 744 -377 1433 -701 2475
-813 2614 -22 28 -25 29 -55 16 -18 -7 -45 -26 -61 -42 l-29 -28 -41 78 c-49
95 -99 152 -131 151 -13 0 -69 -18 -124 -40z m-9 -395 c121 -216 222 -548 409
-1349 191 -816 300 -1217 419 -1545 31 -84 56 -157 56 -162 0 -24 -115 -173
-207 -269 -152 -157 -321 -271 -527 -353 -79 -32 -98 -36 -180 -36 -158 0
-276 43 -364 134 -50 50 -94 123 -107 179 -7 27 -6 27 21 17 49 -19 184 -13
247 10 211 79 322 297 258 508 -69 228 -286 338 -541 272 -313 -80 -507 -215
-609 -423 -52 -107 -72 -190 -76 -312 l-3 -100 -98 -27 c-125 -34 -165 -35
-198 -5 -21 19 -40 77 -121 379 -52 196 -95 367 -95 380 0 37 28 67 87 93 109
49 175 125 208 239 33 112 1 245 -79 333 -19 22 -64 55 -98 74 -60 32 -68 34
-163 34 -87 0 -107 -3 -155 -26 -140 -66 -228 -231 -201 -375 6 -27 82 -318
170 -647 89 -329 161 -600 161 -602 0 -6 -80 -29 -84 -24 -7 8 -366 1359 -366
1378 0 10 14 45 30 77 61 118 48 239 -35 332 -101 112 -270 128 -391 36 -100
-77 -136 -234 -79 -350 25 -51 105 -134 130 -134 40 0 55 -45 230 -701 97
-360 180 -669 184 -686 9 -32 8 -33 -31 -44 -22 -5 -42 -8 -45 -5 -3 3 -79
281 -169 618 -99 373 -173 634 -190 666 -59 115 -177 184 -317 184 -70 1 -86
-3 -152 -36 -273 -135 -266 -514 13 -644 50 -24 70 -27 162 -27 115 -1 141 -9
158 -52 20 -51 192 -704 192 -729 0 -32 -15 -61 -39 -73 -21 -12 -242 -73
-246 -69 -1 2 -17 32 -36 68 -22 44 -63 95 -124 155 -103 104 -185 151 -325
186 -161 41 -426 14 -619 -63 -163 -65 -274 -270 -242 -446 33 -180 170 -314
350 -343 112 -18 239 20 329 97 24 20 46 33 50 29 4 -4 7 -55 7 -114 0 -104
-1 -109 -38 -183 -69 -141 -223 -255 -377 -279 -137 -22 -413 -17 -537 9 -123
27 -252 71 -354 123 l-77 38 -7 48 c-14 98 -68 363 -106 523 -61 253 -128 492
-281 1000 -280 933 -340 1177 -363 1487 -7 85 -6 92 13 102 33 18 318 13 547
-10 116 -11 300 -23 410 -26 278 -8 387 4 965 111 214 39 526 83 660 93 l87 6
58 -53 58 -52 76 4 c133 8 221 62 239 146 6 23 17 53 25 66 25 38 395 194 790
332 545 192 701 271 1127 574 205 146 259 180 385 247 55 29 101 53 102 53 1
0 19 -30 39 -66z m-1182 -3676 c8 -29 12 -56 8 -59 -7 -7 -155 -49 -171 -49
-11 0 -36 99 -26 108 5 6 146 49 167 51 3 1 13 -23 22 -51z m-1354 -350 c6
-24 13 -50 16 -59 4 -13 -12 -21 -80 -38 -47 -11 -89 -21 -95 -21 -11 0 -36
98 -27 107 3 3 43 16 88 29 46 12 84 23 85 23 1 1 7 -18 13 -41z m859 -73 c36
-18 31 -7 101 -264 36 -133 65 -221 77 -232 10 -9 90 -59 178 -109 171 -98
205 -126 205 -168 0 -16 -69 -150 -172 -336 -151 -271 -176 -310 -204 -322
-24 -10 -40 -11 -60 -4 -46 18 -578 331 -606 358 -47 44 -40 73 67 257 52 90
99 174 104 188 8 20 -3 74 -50 247 -32 122 -59 230 -59 240 0 10 10 31 23 45
18 22 53 35 177 70 179 49 182 50 219 30z"/>
<path d="M16440 13734 c0 -5 144 -533 319 -1174 174 -641 316 -1168 314 -1171
-1 -4 -462 -305 -1024 -670 -726 -472 -1014 -665 -998 -666 13 -1 562 -28
1219 -59 657 -31 1196 -58 1198 -59 2 -2 145 -531 318 -1176 173 -645 316
-1174 317 -1176 2 -1 196 507 431 1130 236 623 432 1136 436 1140 4 5 555 -20
1224 -55 1154 -60 1216 -62 1194 -44 -13 10 -440 354 -950 763 -511 410 -928
749 -928 753 0 4 195 518 434 1141 239 624 434 1134 433 1135 -1 0 -460 -300
-1021 -668 -652 -428 -1023 -665 -1030 -660 -19 15 -1850 1494 -1868 1510 -10
8 -18 11 -18 6z"/>
<path d="M14060 8437 c-79 -33 -167 -94 -196 -136 -47 -69 -31 -136 57 -242
22 -26 39 -51 39 -56 0 -5 -16 -17 -35 -26 -20 -9 -38 -24 -41 -32 -8 -20 9
-88 22 -92 13 -4 462 314 477 337 6 11 5 32 -4 63 l-14 47 -121 -68 c-200
-113 -244 -124 -295 -73 -36 36 -38 75 -6 121 34 52 81 74 157 76 93 3 93 3
119 23 21 16 22 21 11 42 -7 13 -18 27 -24 31 -21 15 -92 7 -146 -15z"/>
<path d="M14306 7913 c-4 -10 -24 -47 -46 -83 -56 -95 -56 -99 14 -123 68 -23
148 -94 160 -142 6 -24 3 -32 -21 -52 -103 -86 -377 -173 -547 -173 -75 0
-120 22 -192 92 l-52 50 -10 -49 c-16 -74 -28 -98 -69 -144 -48 -54 -144 -98
-287 -134 -80 -20 -125 -26 -174 -23 -60 4 -67 7 -101 44 -20 22 -51 61 -69
87 -34 51 -52 54 -52 9 0 -52 -28 -142 -54 -181 -15 -21 -48 -50 -74 -64 -65
-35 -318 -97 -397 -97 -77 0 -97 14 -159 110 -24 37 -49 70 -54 74 -7 4 -13
-16 -17 -51 -14 -123 -41 -177 -110 -224 -84 -58 -306 -109 -388 -90 -42 10
-93 45 -152 105 l-40 40 -8 -54 c-18 -130 -106 -205 -303 -260 -191 -54 -264
-35 -348 88 -27 40 -51 70 -53 68 -2 -2 -8 -35 -14 -72 -25 -187 -64 -217
-381 -301 -133 -34 -194 -35 -241 -3 -72 50 -75 58 -288 883 -9 34 -12 36 -29
24 -10 -7 -50 -53 -88 -103 l-69 -89 39 -60 c69 -105 99 -184 158 -421 85
-335 130 -420 248 -465 85 -32 232 -23 410 26 208 56 251 84 313 207 l30 59
44 -31 c112 -77 167 -85 321 -45 172 45 244 96 304 215 l30 60 83 -53 82 -52
85 2 c97 2 237 38 310 80 57 33 115 93 124 129 4 15 13 35 20 45 11 17 17 15
81 -24 66 -40 72 -42 150 -42 55 1 113 10 185 29 219 58 252 78 311 190 17 33
33 63 35 65 2 2 19 -8 39 -23 60 -46 103 -59 195 -59 209 1 416 106 471 238
12 30 29 57 37 60 10 3 30 -8 52 -30 43 -42 123 -75 183 -75 58 0 268 55 330
86 178 91 330 365 288 521 -9 33 -30 58 -110 132 -100 92 -124 105 -135 74z"/>
<path d="M12829 7768 c-32 -48 -49 -83 -42 -85 6 -2 48 -22 93 -43 l81 -40 53
83 53 82 -81 42 c-44 23 -86 42 -92 42 -6 1 -36 -36 -65 -81z"/>
<path d="M12521 7692 c-28 -43 -51 -81 -51 -85 0 -7 121 -70 156 -81 18 -5 29
6 74 74 29 44 51 82 49 84 -6 5 -168 86 -173 86 -2 0 -27 -35 -55 -78z"/>
<path d="M12080 7570 c-29 -44 -51 -82 -49 -84 19 -17 173 -86 179 -79 4 4 30
42 58 84 l50 75 -84 42 c-46 23 -88 42 -93 42 -5 0 -32 -36 -61 -80z"/>
<path d="M11768 7487 l-56 -84 84 -41 c46 -23 88 -42 93 -42 10 0 116 159 110
164 -6 5 -168 86 -172 86 -2 0 -29 -37 -59 -83z"/>
<path d="M9265 6823 c-27 -42 -51 -80 -53 -84 -2 -4 37 -28 87 -53 l89 -45 51
79 c28 43 51 83 51 87 0 7 -162 93 -173 93 -1 0 -24 -35 -52 -77z"/>
<path d="M8950 6735 c-27 -41 -50 -78 -50 -82 0 -8 170 -97 175 -91 15 20 105
158 105 162 0 7 -156 86 -169 86 -6 0 -33 -34 -61 -75z"/>
<path d="M9291 6446 c-84 -28 -125 -88 -170 -250 -34 -121 -36 -134 -20 -189
16 -59 63 -105 126 -123 70 -20 177 -9 332 36 57 17 111 30 120 30 50 0 55
-77 11 -174 -70 -153 -202 -224 -640 -345 -229 -63 -334 -81 -465 -81 -125 0
-173 15 -242 75 -68 60 -101 128 -113 233 -5 46 -12 88 -16 94 -14 22 -26 -37
-31 -149 -9 -177 20 -283 98 -368 89 -97 174 -121 382 -112 380 18 811 184
983 380 73 83 123 221 124 338 0 117 -51 309 -111 415 -89 157 -235 233 -368
190z m182 -170 c38 -16 72 -51 86 -88 10 -26 8 -28 -17 -34 -15 -3 -61 -14
-102 -25 -111 -27 -204 -40 -238 -33 -80 16 -29 141 73 178 51 19 156 20 198
2z"/>
<path d="M10978 6037 l-56 -84 84 -41 c46 -23 88 -42 93 -42 10 0 116 159 110
164 -6 5 -168 86 -172 86 -2 0 -29 -37 -59 -83z"/>
<path d="M10678 5978 c-19 -29 -42 -65 -52 -80 l-18 -27 91 -45 90 -46 50 74
c28 41 52 79 53 85 3 9 -152 91 -171 91 -5 0 -24 -24 -43 -52z"/>
<path d="M10883 5750 l-53 -80 90 -45 90 -45 55 82 55 83 -83 42 c-45 23 -86
42 -92 42 -5 0 -34 -35 -62 -79z"/>
<path d="M11837 5366 c-4 -10 -7 -37 -7 -61 0 -62 -33 -226 -65 -320 -35 -105
-112 -257 -177 -353 -75 -108 -241 -277 -350 -356 -117 -83 -292 -173 -430
-221 l-107 -37 44 -58 c126 -163 282 -240 491 -240 129 0 246 23 414 81 80 27
152 52 161 55 13 5 21 -9 39 -63 94 -289 290 -504 542 -593 43 -16 45 -14 123
101 97 143 142 321 131 519 -3 63 -12 144 -20 180 -8 35 -12 68 -10 72 3 4 16
8 29 8 46 0 240 42 335 72 317 101 486 280 519 553 4 36 7 65 6 65 -1 0 -46
-10 -101 -22 -137 -31 -493 -33 -624 -4 -281 61 -522 185 -715 368 -73 69
-171 187 -211 254 -10 17 -11 17 -17 0z"/>
</g>
</svg>
